nColumns=19
nRows=57
DataType=double
version=3
OpenSimVersion=4.1
endheader
time	ground_force_1_vx	ground_force_1_vy	ground_force_1_vz	ground_force_1_px	ground_force_1_py	ground_force_1_pz	ground_force_1_mx	ground_force_1_my	ground_force_1_mz	ground_force_2_vx	ground_force_2_vy	ground_force_2_vz	ground_force_2_px	ground_force_2_py	ground_force_2_pz	ground_force_2_mx	ground_force_2_my	ground_force_2_mz
0	-44.7818	424.335	3.13395	0.0811879	0.006	-0.218148	0	-0.117529	0	0	0	0	0.682219	0	-0.353874	0	0	0
0.01	-63.4796	472.986	-0.0806353	0.0865399	0.006	-0.217242	0	-0.264783	0	0	0	0	0.682219	0	-0.353874	0	0	0
0.02	-82.8112	525.294	-4.22241	0.0924989	0.006	-0.21616	0	-0.422689	0	0	0	0	0.682219	0	-0.353874	0	0	0
0.03	-101.945	579.561	-9.2973	0.0980529	0.006	-0.215079	0	-0.580098	0	0	0	0	0.682219	0	-0.353874	0	0	0
0.04	-120.105	633.99	-15.1913	0.103195	0.006	-0.21402	0	-0.723449	0	0	0	0	0.682219	0	-0.353874	0	0	0
0.05	-136.628	687.03	-21.6826	0.107937	0.006	-0.213008	0	-0.837223	0	0	0	0	0.682219	0	-0.353874	0	0	0
0.06	-150.987	737.624	-28.505	0.112298	0.006	-0.212058	0	-0.907524	0	0	0	0	0.682219	0	-0.353874	0	0	0
0.07	-162.838	785.167	-35.3739	0.116302	0.006	-0.211187	0	-0.925379	0	0	0	0	0.682219	0	-0.353874	0	0	0
0.08	-171.985	829.265	-41.9612	0.119966	0.006	-0.210405	0	-0.885992	0	0	0	0	0.682219	0	-0.353874	0	0	0
0.09	-178.329	869.509	-47.9095	0.123311	0.006	-0.209722	0	-0.7887	0	0	0	0	0.682219	0	-0.353874	0	0	0
0.1	-181.861	905.368	-52.9165	0.126362	0.006	-0.209139	0	-0.64034	0	0	0	0	0.682219	0	-0.353874	0	0	0
0.11	-182.678	936.194	-56.8133	0.129159	0.006	-0.208643	0	-0.455906	0	0	0	0	0.682219	0	-0.353874	0	0	0
0.12	-180.976	961.3	-59.573	0.131755	0.006	-0.208212	0	-0.254306	0	0	0	0	0.682219	0	-0.353874	0	0	0
0.13	-177.04	980.075	-61.2785	0.134208	0.006	-0.207817	0	-0.054498	0	0	0	0	0.682219	0	-0.353874	0	0	0
0.14	-171.209	992.11	-62.0771	0.136582	0.006	-0.207431	0	0.126765	0	0	0	0	0.682219	0	-0.353874	0	0	0
0.15	-163.842	997.273	-62.1308	0.138933	0.006	-0.20703	0	0.276847	0	0	0	0	0.682219	0	-0.353874	0	0	0
0.16	-155.293	995.732	-61.5848	0.141313	0.006	-0.206596	0	0.387929	0	0	0	0	0.682219	0	-0.353874	0	0	0
0.17	-145.886	987.911	-60.5572	0.143762	0.006	-0.206118	0	0.456873	0	0	0	0	0.682219	0	-0.353874	0	0	0
0.18	-135.913	974.442	-59.1401	0.146311	0.006	-0.20559	0	0.484645	0	0	0	0	0.682219	0	-0.353874	0	0	0
0.19	-125.624	956.114	-57.41	0.148982	0.006	-0.205009	0	0.475051	0	0	0	0	0.682219	0	-0.353874	0	0	0
0.2	-115.239	933.822	-55.4371	0.15179	0.006	-0.204379	0	0.433275	0	0	0	0	0.682219	0	-0.353874	0	0	0
0.21	-104.947	908.52	-53.2872	0.154743	0.006	-0.203701	0	0.364688	0	0	0	0	0.682219	0	-0.353874	0	0	0
0.22	-94.907	881.191	-51.0229	0.157841	0.006	-0.202983	0	0.274228	0	0	0	0	0.682219	0	-0.353874	0	0	0
0.23	-85.2482	852.812	-48.705	0.16108	0.006	-0.202229	0	0.166143	0	0	0	0	0.682219	0	-0.353874	0	0	0
0.24	-76.0696	824.324	-46.3929	0.164449	0.006	-0.201449	0	0.043824	0	0	0	0	0.682219	0	-0.353874	0	0	0
0.25	-67.4387	796.594	-44.1434	0.167928	0.006	-0.200653	0	-0.090431	0	0	0	0	0.682219	0	-0.353874	0	0	0
0.26	-59.393	770.39	-42.0091	0.171492	0.006	-0.199851	0	-0.235554	0	0	0	0	0.682219	0	-0.353874	0	0	0
0.27	-51.9424	746.36	-40.0389	0.175112	0.006	-0.199054	0	-0.391648	0	0	0	0	0.682219	0	-0.353874	0	0	0
0.28	-45.072	725.033	-38.2799	0.178754	0.006	-0.198274	0	-0.559668	0	0	0	0	0.682219	0	-0.353874	0	0	0
0.29	-38.7438	706.81	-36.7774	0.182386	0.006	-0.197522	0	-0.741076	0	0	0	0	0.682219	0	-0.353874	0	0	0
0.3	-32.8981	691.972	-35.5726	0.185979	0.006	-0.196806	0	-0.937594	0	0	0	0	0.682219	0	-0.353874	0	0	0
0.31	-27.457	680.696	-34.6993	0.189509	0.006	-0.196135	0	-1.15107	0	0	0	0	0.682219	0	-0.353874	0	0	0
0.32	-22.3283	673.071	-34.1823	0.19296	0.006	-0.195514	0	-1.38324	0	0	0	0	0.682219	0	-0.353874	0	0	0
0.33	-17.4087	669.118	-34.0379	0.196329	0.006	-0.194944	0	-1.63557	0	0	0	0	0.682219	0	-0.353874	0	0	0
0.34	-12.5873	668.81	-34.2774	0.199619	0.006	-0.194426	0	-1.90909	0	0	0	0	0.682219	0	-0.353874	0	0	0
0.35	-7.75007	672.092	-34.9098	0.202848	0.006	-0.193955	0	-2.20394	0	0	0	0	0.682219	0	-0.353874	0	0	0
0.36	-2.78421	678.89	-35.9447	0.206038	0.006	-0.193525	0	-2.519	0	0	0	0	0.682219	0	-0.353874	0	0	0
0.37	2.41693	689.124	-37.3921	0.20922	0.006	-0.193127	0	-2.85162	0	0	0	0	0.682219	0	-0.353874	0	0	0
0.38	7.95006	702.706	-39.2584	0.212426	0.006	-0.192755	0	-3.19746	0	0	0	0	0.682219	0	-0.353874	0	0	0
0.39	13.9	719.538	-41.541	0.215685	0.006	-0.192404	0	-3.55055	0	0	0	0	0.682219	0	-0.353874	0	0	0
0.4	20.3377	739.496	-44.2226	0.219024	0.006	-0.192072	0	-3.90351	0	0	0	0	0.682219	0	-0.353874	0	0	0
0.41	27.3163	762.408	-47.2674	0.222457	0.006	-0.191761	0	-4.24773	0	0	0	0	0.682219	0	-0.353874	0	0	0
0.42	34.8657	788.029	-50.6178	0.225991	0.006	-0.191478	0	-4.57379	0	0	0	0	0.682219	0	-0.353874	0	0	0
0.43	42.9913	816.015	-54.1923	0.22962	0.006	-0.191231	0	-4.87239	0	0	0	0	0.682219	0	-0.353874	0	0	0
0.44	51.6762	845.902	-57.8862	0.233328	0.006	-0.19103	0	-5.13504	0	0	0	0	0.682219	0	-0.353874	0	0	0
0.45	60.8881	877.081	-61.5765	0.237092	0.006	-0.190885	0	-5.35438	0	0	0	0	0.682219	0	-0.353874	0	0	0
0.46	70.5862	908.803	-65.1302	0.240879	0.006	-0.190805	0	-5.52434	0	0	0	0	0.682219	0	-0.353874	0	0	0
0.47	80.7255	940.185	-68.4123	0.244654	0.006	-0.190795	0	-5.63983	0	0	0	0	0.682219	0	-0.353874	0	0	0
0.48	91.2568	970.228	-71.2937	0.24838	0.006	-0.19086	0	-5.69661	0	0	0	0	0.682219	0	-0.353874	0	0	0
0.49	102.122	997.826	-73.6564	0.252022	0.006	-0.191	0	-5.69143	0	0	0	0	0.682219	0	-0.353874	0	0	0
0.5	113.242	1021.79	-75.3969	0.255551	0.006	-0.191214	0	-5.62278	0	0	0	0	0.682219	0	-0.353874	0	0	0
0.51	124.5	1040.9	-76.4281	0.258945	0.006	-0.191497	0	-5.49184	0	0	0	0	0.682219	0	-0.353874	0	0	0
0.52	135.727	1053.9	-76.6788	0.262188	0.006	-0.191845	0	-5.30302	0	8.90842	23.0604	-3.62968	0.682219	0.006	-0.353874	0	0.45605	0
0.53	146.681	1059.58	-76.093	0.265277	0.006	-0.19225	0	-5.06398	0	7.70193	45.9951	-3.17984	0.75046	0.006	-0.369333	0	0.573563	0
0.54	157.041	1056.82	-74.6274	0.268219	0.006	-0.192704	0	-4.78536	0	5.28308	75.0917	-2.43556	0.779625	0.006	-0.375382	0	0.636758	0
0.55	166.415	1044.65	-72.2535	0.271025	0.006	-0.193196	0	-4.47989	0	1.31741	110.784	-1.32732	0.796439	0.006	-0.378483	0	0.692569	0
0.56	174.357	1022.33	-68.9665	0.273714	0.006	-0.193718	0	-4.16069	0	-4.55537	153.195	0.216707	0.80788	0.006	-0.380307	0	0.754643	0
